Coordinates
version=1
nRows=12
nColumns=24
inDegrees=yes

Units are S.I. units (second, meters, Newtons, ...)
Angles are in degrees.

endheader
time	pelvis_tilt	pelvis_list	pelvis_rotation	pelvis_tx	pelvis_ty	pelvis_tz	hip_flexion_r	hip_adduction_r	hip_rotation_r	knee_angle_r	ankle_angle_r	subtalar_angle_r	mtp_angle_r	hip_flexion_l	hip_adduction_l	hip_rotation_l	knee_angle_l	ankle_angle_l	subtalar_angle_l	mtp_angle_l	lumbar_extension	lumbar_bending	lumbar_rotation
      3.27500000	    -10.46791347	      3.68282395	     -7.46603736	     -1.23078510	     -0.04997072	      0.69800266	     -8.41910454	     -5.34509351	      8.46970923	    -12.90769170	     10.07767296	      6.11096435	     16.54275765	     41.59070674	     -1.99849385	     -6.88862559	    -23.32517827	      3.88585475	      5.37924957	     -1.64002759	      5.84434961	     -0.09457306	      8.43203957
      3.28000000	    -10.59637503	      3.94634275	     -7.84055256	     -1.22230845	     -0.05133366	      0.69840798	     -8.19992576	     -5.69230802	      8.70731855	    -13.81891088	      9.78886157	      6.54838494	     16.67319934	     41.58543631	     -1.90720471	     -6.97869389	    -23.62072633	      3.64924865	      5.24043412	     -1.44183445	      6.11789066	     -0.47570550	      8.78161485
      3.28500000	    -10.72022790	      4.30686630	     -8.04846072	     -1.21369044	     -0.05274596	      0.69857012	     -7.92126459	     -6.16847805	      8.31772144	    -14.83698513	      9.49535937	      7.45676338	     17.47773316	     41.62103460	     -1.61557741	     -7.02051739	    -24.01557236	      2.95628643	      4.97063010	     -0.26922571	      6.41245576	     -0.98147847	      8.97947106
      3.29000000	    -10.82452274	      4.57953262	     -8.26840539	     -1.20524057	     -0.05398962	      0.69884819	     -7.65070887	     -6.50586783	      8.37536703	    -15.82035566	      8.70807929	      7.60173999	     19.07191597	     41.66249328	     -1.41438361	     -7.01096924	    -24.45211470	      1.46050279	      4.40120482	      2.89882683	      6.64887267	     -1.41120375	      9.15588634
      3.29500000	    -10.99120100	      4.93169674	     -8.44651271	     -1.19673892	     -0.05529854	      0.69901071	     -7.20142150	     -6.93423522	      8.24795606	    -17.02494239	      8.11797500	      8.18932247	     19.94282604	     41.84538530	     -1.10830505	     -6.90110600	    -25.11685708	      0.34492756	      3.92238230	      4.81139187	      6.97397985	     -1.91386068	      9.34122456
      3.30000000	    -11.16893260	      5.29646920	     -8.57493131	     -1.18830432	     -0.05655757	      0.69910149	     -6.66703871	     -7.37268536	      8.06706151	    -18.32217635	      7.34999300	      8.75185449	     21.22906773	     42.12181073	     -0.75196044	     -6.69532787	    -25.95384551	     -0.73102879	      3.41714347	      6.49318089	      7.30260741	     -2.43458453	      9.46687412
      3.30500000	    -11.40081722	      5.69974300	     -8.63328355	     -1.17988615	     -0.05786117	      0.69905289	     -5.98287564	     -7.85495477	      7.76275517	    -19.79153412	      6.62266784	      9.57742851	     22.10257599	     42.54974280	     -0.31058306	     -6.39089333	    -26.99070588	     -1.45499193	      2.99181176	      7.25622568	      7.68768227	     -2.99323961	      9.53483344
      3.31000000	    -11.53977499	      6.10059239	     -8.64109880	     -1.17153584	     -0.05894390	      0.69899505	     -5.37050171	     -8.32488733	      7.54506600	    -21.22374766	      5.39243369	      9.91206505	     24.23468915	     42.90137470	      0.20278558	     -5.95125555	    -28.00615769	     -2.44592037	      2.26485284	      8.84624932	      7.95490535	     -3.58406258	      9.51867515
      3.31500000	    -11.72973198	      6.55543474	     -8.61962432	     -1.16312359	     -0.06008985	      0.69891270	     -4.61304666	     -8.85008103	      7.30649969	    -22.82052134	      4.21171615	     10.46843560	     25.75627049	     43.35233599	      0.78006465	     -5.50239976	    -29.12300312	     -2.91702870	      1.66273031	      9.40515472	      8.29728775	     -4.22823494	      9.51404177
      3.32000000	    -11.91745894	      7.03633469	     -8.58728559	     -1.15470759	     -0.06123927	      0.69878187	     -3.77413349	     -9.41352505	      7.08941223	    -24.53975985	      2.99055987	     11.21095213	     26.98941103	     43.81262145	      1.39992732	     -5.06903930	    -30.25177465	     -3.04940732	      1.00549806	      9.29640699	      8.63898735	     -4.89440709	      9.52593950
      3.32500000	    -11.95259154	      7.44769798	     -8.51659183	     -1.14631589	     -0.06212100	      0.69855368	     -3.10326721	     -9.91835580	      6.89216277	    -26.13458710	      1.13984702	     11.45897399	     29.82894632	     44.09899673	      2.03914028	     -4.65034231	    -31.37535763	     -2.77912668	      0.13591532	      7.83064155	      8.78493508	     -5.51437958	      9.45772074
      3.33000000	    -11.98955235	      7.87917945	     -8.41272067	     -1.13786520	     -0.06304715	      0.69826423	     -2.36837841	    -10.45482527	      6.66669406	    -27.83105543	     -0.71820786	     11.90607427	     32.15420421	     44.36807926	      2.70764905	     -4.37335228	    -32.47323680	     -2.10222718	     -0.76970439	      5.15139632	      8.94329498	     -6.15456541	      9.34061935
